<?xml version="1.0" encoding="UTF-8" standalone="no"?>
<!-- Created with Inkscape (http://www.inkscape.org/) -->

<svg
   xmlns:dc="http://purl.org/dc/elements/1.1/"
   xmlns:cc="http://creativecommons.org/ns#"
   xmlns:rdf="http://www.w3.org/1999/02/22-rdf-syntax-ns#"
   xmlns:svg="http://www.w3.org/2000/svg"
   xmlns="http://www.w3.org/2000/svg"
   xmlns:sodipodi="http://sodipodi.sourceforge.net/DTD/sodipodi-0.dtd"
   xmlns:inkscape="http://www.inkscape.org/namespaces/inkscape"
   width="137.72551mm"
   height="119.91238mm"
   viewBox="0 0 137.72551 119.91238"
   version="1.1"
   id="svg8"
   inkscape:version="0.92.5 (2060ec1f9f, 2020-04-08)"
   sodipodi:docname="kuce.svg">
  <defs
     id="defs2" />
  <sodipodi:namedview
     id="base"
     pagecolor="#ffffff"
     bordercolor="#666666"
     borderopacity="1.0"
     inkscape:pageopacity="0.0"
     inkscape:pageshadow="2"
     inkscape:zoom="0.7"
     inkscape:cx="262.39267"
     inkscape:cy="147.76832"
     inkscape:document-units="mm"
     inkscape:current-layer="layer1"
     showgrid="false"
     inkscape:window-width="1920"
     inkscape:window-height="1019"
     inkscape:window-x="0"
     inkscape:window-y="30"
     inkscape:window-maximized="1"
     fit-margin-top="0"
     fit-margin-left="0"
     fit-margin-right="0"
     fit-margin-bottom="0" />
  <metadata
     id="metadata5">
    <rdf:RDF>
      <cc:Work
         rdf:about="">
        <dc:format>image/svg+xml</dc:format>
        <dc:type
           rdf:resource="http://purl.org/dc/dcmitype/StillImage" />
        <dc:title />
      </cc:Work>
    </rdf:RDF>
  </metadata>
  <g
     inkscape:label="Layer 1"
     inkscape:groupmode="layer"
     id="layer1"
     transform="translate(-32.114524,-91.92738)">
    <g
       id="g836"
       transform="translate(204.16593,53.10931)"
       style="fill:#7f1d1d;fill-opacity:1">
      <path
         inkscape:connector-curvature="0"
         id="path826"
         d="m -103.1057,38.818154 c -3.44777,0.0036 -6.92249,0.12622 -8.15144,0.365353 -5.84139,1.136634 -10.00277,2.720893 -14.04721,5.347477 l -1.61178,1.046449 -1.18288,-0.522968 c -2.04123,-0.902935 -4.21937,-1.336217 -6.69571,-1.332217 -8.20259,0.01341 -15.90817,4.946272 -24.79125,15.870865 -10.2526,12.608819 -14.45727,24.182943 -11.57966,31.874023 1.4514,3.879225 5.09494,7.877103 8.78086,9.634554 2.08476,0.99402 5.01947,1.88309 6.21564,1.88309 0.81474,0 0.87494,0.25789 0.46767,2.00453 -0.96385,4.13357 -1.30748,7.67355 -1.30948,13.47359 -0.002,6.70852 0.34794,9.23858 1.96164,14.16813 1.7829,5.44645 3.77355,8.77365 7.62227,12.74186 5.90811,6.09154 14.0068,10.00235 24.7928,11.97188 1.89177,0.34544 4.74927,0.75834 6.35,0.91777 1.60073,0.15943 3.32714,0.33668 3.83646,0.39378 1.89791,0.21276 20.834616,-0.0736 22.489584,-0.34004 0.945881,-0.15229 3.02948,-0.47177 4.630209,-0.71003 9.214882,-1.37163 17.339336,-4.62836 23.227006,-9.31106 6.41868,-5.10505 10.323366,-11.74213 12.103137,-20.57187 1.13543,-5.63311 0.900869,-15.68441 -0.515729,-22.09271 -0.273431,-1.23692 -0.442706,-2.33825 -0.376206,-2.44739 0.06652,-0.10914 0.37414,-0.19844 0.683678,-0.19844 1.203082,0 4.137885,-0.89194 6.285405,-1.91048 1.856631,-0.8806 2.641888,-1.46498 4.502568,-3.348631 2.424689,-2.45464 3.817249,-4.727027 4.63796,-7.568014 0.54237,-1.877521 0.610265,-5.637578 0.143143,-7.942667 -1.6769,-8.274651 -8.238247,-19.088695 -17.073375,-28.139885 -6.72615,-6.890647 -12.303312,-9.954643 -18.722371,-10.285158 -3.20103,-0.164822 -5.34017,0.158099 -7.563879,1.141531 l -1.451076,0.641821 -1.414383,-0.938442 c -3.8368,-2.546723 -8.01198,-4.14867 -14.255461,-5.468401 -1.119558,-0.236646 -4.540375,-0.351946 -7.98814,-0.3483 z m -0.0837,8.977746 c 2.95968,-2.4e-4 5.919061,0.216017 7.926651,0.649058 7.602699,1.6399 13.017317,5.418722 17.771007,12.402343 3.300391,4.84862 6.127136,11.161059 9.627835,21.499978 0.76372,2.25557 2.008873,5.767919 2.767274,7.805208 3.736211,10.036433 4.23068,11.492653 5.129919,15.113803 0.883809,3.55899 1.169234,5.41878 1.497584,9.75703 0.812578,10.73685 -1.440357,18.33515 -7.189226,24.24658 -5.724261,5.88614 -15.155106,9.20428 -29.172895,10.26397 -1.879872,0.14207 -3.516982,0.19728 -3.638021,0.12248 -0.12107,-0.0748 -0.220143,-3.81217 -0.220143,-8.30492 0,-7.86816 0.01899,-8.17449 0.516249,-8.33231 2.40297,-0.76268 8.318347,-6.0325 10.028328,-8.93382 1.904679,-3.2317 2.289111,-4.54079 2.272212,-7.73906 -0.01839,-3.46007 -0.45157,-4.67296 -2.41949,-6.77685 -1.44272,-1.54236 -3.367762,-2.59614 -6.031674,-3.30212 -1.553949,-0.41183 -2.874233,-0.49165 -8.20208,-0.49765 -6.51421,-0.007 -8.35416,0.12816 -10.48257,0.76946 -3.14718,0.94826 -5.54383,2.90603 -6.74739,5.51181 -0.68652,1.48635 -0.76172,1.92429 -0.76119,4.42764 6.2e-4,3.05076 0.42554,4.46269 2.28668,7.59437 1.74824,2.94172 7.62595,8.18346 10.03246,8.94725 0.50431,0.16006 0.5179,0.41436 0.45011,8.41448 -0.0681,8.03682 -0.0834,8.2502 -0.59894,8.2827 -0.29105,0.0183 -1.83885,-0.0667 -3.43958,-0.18862 -15.34252,-1.16841 -25.36886,-5.23467 -30.88287,-12.52534 -4.17729,-5.52325 -5.8296,-12.47338 -5.20433,-21.89375 0.46413,-6.99239 1.56063,-11.35896 5.53558,-22.046716 1.13656,-3.055935 2.67821,-7.34219 3.42615,-9.525 3.15752,-9.214979 5.04821,-13.877869 7.44605,-18.366319 5.16153,-9.66176 11.40917,-14.797397 20.34708,-16.725079 2.00935,-0.433375 4.96955,-0.650365 7.92923,-0.650606 z m -31.70297,4.918046 c 0.49098,0 0.51051,0.0535 0.18552,0.512115 -3.23775,4.56901 -6.19073,9.934262 -8.31061,15.098302 -1.37649,3.353141 -1.55274,3.831415 -3.94188,10.715625 -0.90905,2.619369 -2.52621,7.113981 -3.59409,9.98802 -1.43143,3.852516 -2.0507,5.217065 -2.35696,5.192964 -4.56939,-0.359219 -6.91832,-1.567966 -9.07077,-4.66793 -0.81666,-1.176231 -0.86971,-1.389565 -0.86971,-3.501596 0,-2.721319 0.87609,-5.656913 2.83858,-9.511564 3.47788,-6.831111 11.12926,-16.292288 16.34939,-20.216336 2.70091,-2.03032 6.53805,-3.6096 8.77053,-3.6096 z m 63.620921,0.0031 c 1.232879,0.0051 3.53858,0.711407 5.522658,1.691886 7.38111,3.64757 19.07122,18.616324 21.687049,27.769365 1.2011,4.202811 0.722744,6.669032 -1.779736,9.171532 -1.44754,1.447517 -2.783109,2.096188 -5.206402,2.528528 -1.100539,0.196331 -2.180169,0.36087 -2.398818,0.365871 -0.421751,0.0098 -3.006918,-6.649402 -6.074047,-15.64504 -0.876562,-2.570882 -1.940539,-5.547444 -2.364198,-6.614583 -0.423651,-1.067131 -1.129234,-2.845181 -1.567862,-3.951182 -1.836151,-4.63007 -4.749049,-9.878888 -8.215519,-14.803747 -0.33496,-0.475879 -0.304327,-0.51563 0.396875,-0.51263 z m -17.718815,30.428118 c -0.830392,-0.02708 -1.687912,0.153966 -2.555402,0.547253 -2.382678,1.080199 -3.548102,2.854346 -3.548102,5.401736 0,2.45591 1.366735,4.586595 3.548102,5.531445 3.671732,1.590411 8.206534,-1.368155 8.200533,-5.35006 -0.0026,-1.730031 -0.517313,-2.950432 -1.802474,-4.27519 -1.150718,-1.186196 -2.458672,-1.810054 -3.842657,-1.855184 z m -28.087696,0.141076 c -4.03266,0.02795 -6.7682,3.656885 -5.68802,7.545276 0.35635,1.2828 1.98714,3.123977 3.29179,3.716567 3.36649,1.529112 7.36478,-0.609692 8.03413,-4.297928 0.67079,-3.696139 -1.99518,-6.989114 -5.6379,-6.963915 z m 13.09636,31.36966 c 0.69816,-4.9e-4 1.43877,0.0118 2.22054,0.0372 5.066397,0.16433 6.709231,0.50266 6.94221,1.43092 0.398651,1.58836 -2.570969,5.64133 -5.63325,7.6879 -2.66491,1.781 -4.42182,1.31955 -7.82381,-2.05517 -1.9516,-1.93594 -3.3685,-4.17765 -3.3755,-5.33818 -0.006,-1.13114 2.78267,-1.75921 7.66981,-1.76268 z"
         style="fill:#7f1d1d;stroke-width:0.26458332;fill-opacity:1" />
      <circle
         r="8.5044641"
         cy="88.168152"
         cx="-115.66071"
         id="path816"
         style="fill:#7f1d1d;stroke-width:0.26458332;fill-opacity:1" />
      <circle
         r="8.5044641"
         cy="87.979164"
         cx="-89.958336"
         id="path816-0"
         style="fill:#7f1d1d;stroke-width:0.26458332;fill-opacity:1" />
    </g>
  </g>
</svg>
