<?xml version="1.0" encoding="UTF-8" standalone="no"?>
<!-- Created with Inkscape (http://www.inkscape.org/) -->

<svg
   xmlns:dc="http://purl.org/dc/elements/1.1/"
   xmlns:cc="http://creativecommons.org/ns#"
   xmlns:rdf="http://www.w3.org/1999/02/22-rdf-syntax-ns#"
   xmlns:svg="http://www.w3.org/2000/svg"
   xmlns="http://www.w3.org/2000/svg"
   xmlns:sodipodi="http://sodipodi.sourceforge.net/DTD/sodipodi-0.dtd"
   xmlns:inkscape="http://www.inkscape.org/namespaces/inkscape"
   width="173.80736mm"
   height="150.94589mm"
   viewBox="0 0 173.80736 150.94589"
   version="1.1"
   id="svg8"
   inkscape:version="0.92.5 (2060ec1f9f, 2020-04-08)"
   sodipodi:docname="papagaj2.svg">
  <defs
     id="defs2" />
  <sodipodi:namedview
     id="base"
     pagecolor="#ffffff"
     bordercolor="#666666"
     borderopacity="1.0"
     inkscape:pageopacity="0.0"
     inkscape:pageshadow="2"
     inkscape:zoom="0.69999999"
     inkscape:cx="175.91285"
     inkscape:cy="89.140668"
     inkscape:document-units="mm"
     inkscape:current-layer="layer1"
     showgrid="false"
     inkscape:window-width="1920"
     inkscape:window-height="1019"
     inkscape:window-x="0"
     inkscape:window-y="30"
     inkscape:window-maximized="1"
     fit-margin-top="0"
     fit-margin-left="0"
     fit-margin-right="0"
     fit-margin-bottom="0" />
  <metadata
     id="metadata5">
    <rdf:RDF>
      <cc:Work
         rdf:about="">
        <dc:format>image/svg+xml</dc:format>
        <dc:type
           rdf:resource="http://purl.org/dc/dcmitype/StillImage" />
        <dc:title />
      </cc:Work>
    </rdf:RDF>
  </metadata>
  <g
     inkscape:label="Layer 1"
     inkscape:groupmode="layer"
     id="layer1"
     transform="translate(-10.384056,-71.597072)">
    <g
       id="g816">
      <path
         inkscape:connector-curvature="0"
         id="path953"
         d="m 108.80469,71.6875 c -17.916615,0.58438 -34.865799,10.020361 -46.003909,23.837891 -3.465731,1.862205 -7.66547,0.668307 -11.361328,1.949218 -18.826909,4.095911 -35.21914,19.312081 -39.580078,38.220701 -2.1584068,13.75595 -1.274635,27.75045 -1.396484,41.60547 0.378071,3.90528 5.063817,7.49708 8.636718,4.77734 3.365206,-2.16075 5.076449,-5.93283 7.486329,-8.97656 6.423439,9.60647 16.42375,16.67091 27.308593,20.0918 -6.961363,8.74683 -12.221914,18.80414 -15.898437,29.34961 5.105178,-1.98969 10.907201,-2.43914 15.652344,-5.13867 7.971784,-17.78584 23.784707,-30.0319 36.701471,-44.00977 8.446915,-8.75275 17.716481,-17.02103 24.296461,-27.3318 8.46304,-16.36596 0.24014,-38.26845 -16.124886,-46.168199 -5.718327,-2.918479 -12.583682,-3.7109 -18.666015,-3.722656 15.503465,-14.118923 39.799651,-15.687576 58.111331,-5.917969 12.63564,6.849473 23.13398,18.056354 28.83789,31.228514 4.11244,9.57167 4.38277,20.07481 4.31504,30.30776 0.45795,15.62508 -0.009,31.4137 1.14004,46.93834 2.78166,3.01354 5.94343,8.13648 10.75195,6.82031 2.55042,-2.43825 0.0431,-6.20115 0.87308,-9.16174 -0.45005,-22.1314 -0.12341,-44.32081 -1.02223,-66.4162 -4.72036,-18.6879 -15.42988,-36.453301 -32.0696,-46.769718 C 138.43296,75.052299 123.60603,70.920826 108.80469,71.6875 Z m -36.761721,36.84961 c 7.189088,0.34569 14.82798,-0.73716 21.429687,3.00391 10.416924,5.46008 15.297594,19.91057 9.218754,30.32617 -3.704665,5.4618 -9.079554,9.73404 -13.444059,14.7249 -7.132125,7.17337 -14.541097,15.21171 -22.061804,21.31025 -4.77685,-9.00739 -2.369452,-19.50318 -3.119555,-29.24394 -0.135479,-13.42829 -1.187972,-27.98281 5.789477,-39.77559 0.689958,-0.28963 1.448487,-0.33897 2.1875,-0.3457 z m -16.699219,1.08984 c -2.809365,8.18832 -3.729157,16.87891 -4.095703,25.48438 -11.17514,4.25638 -21.675542,11.11774 -28.697266,20.94726 -0.682126,-12.83422 2.354096,-26.65234 12.191407,-35.69921 5.627283,-5.52108 12.873104,-9.37378 20.601562,-10.73243 z m 30.013672,2.45313 c -8.052156,0.41414 -12.819506,11.06052 -7.876953,17.4082 4.498596,6.67073 16.321498,5.95543 19.308593,-1.79492 3.174457,-6.82581 -2.382826,-15.84115 -10.052734,-15.59375 -0.45947,-0.0322 -0.918789,-0.0316 -1.378906,-0.0195 z m -34.105469,37.36719 c 0.86282,10.07954 -0.473935,20.5771 2.769531,30.37304 -8.057415,-3.32752 -14.892795,-9.76525 -18.880859,-17.51367 0.244515,-4.36074 5.128038,-6.26 7.888398,-8.96388 2.488272,-1.7737 5.281428,-3.34571 8.16043,-4.54393 l 0.05077,0.52672 z"
         style="fill:#1e40af;stroke-width:0.82632071;fill-opacity:1" />
      <path
         sodipodi:nodetypes="ccccc"
         inkscape:connector-curvature="0"
         id="path968"
         d="m 173.41559,197.64019 -121.607419,12.98767 -11.19128,9.4408 141.778279,-15.72448 z"
         style="color:#000000;font-style:normal;font-variant:normal;font-weight:normal;font-stretch:normal;font-size:medium;line-height:normal;font-family:sans-serif;font-variant-ligatures:normal;font-variant-position:normal;font-variant-caps:normal;font-variant-numeric:normal;font-variant-alternates:normal;font-feature-settings:normal;text-indent:0;text-align:start;text-decoration:none;text-decoration-line:none;text-decoration-style:solid;text-decoration-color:#000000;letter-spacing:normal;word-spacing:normal;text-transform:none;writing-mode:lr-tb;direction:ltr;text-orientation:mixed;dominant-baseline:auto;baseline-shift:baseline;text-anchor:start;white-space:normal;shape-padding:0;clip-rule:nonzero;display:inline;overflow:visible;visibility:visible;opacity:1;isolation:auto;mix-blend-mode:normal;color-interpolation:sRGB;color-interpolation-filters:linearRGB;solid-color:#000000;solid-opacity:1;vector-effect:none;fill:#1e40af;fill-opacity:1;fill-rule:nonzero;stroke:none;stroke-width:7.69844532;stroke-linecap:butt;stroke-linejoin:miter;stroke-miterlimit:4;stroke-dasharray:none;stroke-dashoffset:0;stroke-opacity:1;color-rendering:auto;image-rendering:auto;shape-rendering:auto;text-rendering:auto;enable-background:accumulate" />
    </g>
  </g>
</svg>
