<?xml version="1.0" encoding="UTF-8" standalone="no"?>
<!-- Created with Inkscape (http://www.inkscape.org/) -->

<svg
   xmlns:dc="http://purl.org/dc/elements/1.1/"
   xmlns:cc="http://creativecommons.org/ns#"
   xmlns:rdf="http://www.w3.org/1999/02/22-rdf-syntax-ns#"
   xmlns:svg="http://www.w3.org/2000/svg"
   xmlns="http://www.w3.org/2000/svg"
   xmlns:sodipodi="http://sodipodi.sourceforge.net/DTD/sodipodi-0.dtd"
   xmlns:inkscape="http://www.inkscape.org/namespaces/inkscape"
   width="215.77765mm"
   height="103.5349mm"
   viewBox="0 0 215.77765 103.5349"
   version="1.1"
   id="svg8"
   inkscape:version="0.92.5 (2060ec1f9f, 2020-04-08)"
   sodipodi:docname="riba.svg">
  <defs
     id="defs2" />
  <sodipodi:namedview
     id="base"
     pagecolor="#ffffff"
     bordercolor="#666666"
     borderopacity="1.0"
     inkscape:pageopacity="0.0"
     inkscape:pageshadow="2"
     inkscape:zoom="0.98994949"
     inkscape:cx="488.35864"
     inkscape:cy="25.626442"
     inkscape:document-units="mm"
     inkscape:current-layer="layer1"
     showgrid="false"
     inkscape:window-width="1920"
     inkscape:window-height="1019"
     inkscape:window-x="0"
     inkscape:window-y="30"
     inkscape:window-maximized="1"
     fit-margin-top="0"
     fit-margin-left="0"
     fit-margin-right="0"
     fit-margin-bottom="0" />
  <metadata
     id="metadata5">
    <rdf:RDF>
      <cc:Work
         rdf:about="">
        <dc:format>image/svg+xml</dc:format>
        <dc:type
           rdf:resource="http://purl.org/dc/dcmitype/StillImage" />
        <dc:title />
      </cc:Work>
    </rdf:RDF>
  </metadata>
  <g
     inkscape:label="Layer 1"
     inkscape:groupmode="layer"
     id="layer1"
     transform="translate(-97.426667,-74.148939)">
    <g
       id="g820"
       style="stroke:#1e3a8a;stroke-width:6.5;stroke-miterlimit:4;stroke-dasharray:none;stroke-opacity:1;fill:#1e3a8a;fill-opacity:1">
      <path
         inkscape:connector-curvature="0"
         id="path877"
         transform="scale(0.26458333)"
         d="m 1158.3633,287.24023 c -1.4343,0.006 -2.901,0.17865 -4.3789,0.53321 -6.9341,1.66345 -5.6102,0.0897 -35.6875,42.44922 -1.6501,2.32378 -6.823,9.14551 -11.4942,15.16015 -4.6712,6.01463 -10.0712,13.01949 -12,15.56641 -4.9894,6.5883 -24.0926,29.66536 -33.3847,40.32812 -8.454,9.70111 -42.6169,46.4639 -45.0703,48.5 -1.2309,1.02157 -2.9741,-0.0964 -10.3204,-6.61523 -67.73699,-60.10779 -142.93693,-101.49048 -217.17574,-119.51172 -34.56854,-8.39141 -75.84411,-12.23577 -107.24609,-9.98828 -32.69794,2.34024 -47.22173,4.54437 -74.07422,11.23633 -46.50826,11.59044 -92.59052,32.25722 -135.7793,60.89258 -13.07773,8.67091 -18.49747,12.55651 -35.45507,25.42773 -11.64344,8.83763 -30.96633,26.0572 -44.21876,39.4043 -12.54727,12.63696 -14.42087,14.95883 -15.93359,19.75781 -1.61378,5.1227 -1.61328,5.74975 -0.0137,10.82422 1.47594,4.68238 3.42816,7.14572 14.93164,18.82226 43.93886,44.5999 100.49273,83.18743 156.3125,106.65625 32.61041,13.71077 72.61849,24.93596 99.92188,28.03321 4.95,0.56152 12.82498,1.56541 17.5,2.23242 11.49788,1.64058 59.66037,1.6693 72.5,0.043 36.09724,-4.57225 57.99775,-9.38395 86.5,-19.00391 61.86565,-20.88049 126.90722,-60.02942 182.81445,-110.03711 l 8.3125,-7.43555 6.6875,6.93555 c 14.3793,14.91644 24.0366,25.25978 32.0899,34.36719 4.6203,5.22501 9.797,11.07497 11.5039,13 7.6542,8.63229 23.0998,27.72318 36.6816,45.33789 19.5276,25.32612 19.9795,25.93308 31.3418,42.16211 11.4584,16.3662 14.5866,19.8892 18.8945,21.27539 v 0 c 4.2685,1.37248 7.4366,1.41843 11.9395,0.16797 7.8653,-2.18427 13.8534,-12.14726 12.2949,-20.45508 -0.6194,-3.30142 -8.4087,-15.7301 -17.541,-27.98828 -16.0468,-21.53953 -31.0158,-41.4555 -33.5215,-44.59961 -1.65,-2.07035 -4.3413,-5.4825 -5.9805,-7.58203 -6.0884,-7.79857 -26.4403,-31.86206 -39.9824,-47.27539 -3.9237,-4.46582 -17.6233,-19.02326 -28.9219,-30.73242 l -8.8828,-9.20703 17.8828,-18.80274 c 9.8362,-10.34105 21.9348,-23.48594 26.8848,-29.21094 15.7029,-18.16134 33.7772,-39.91677 40,-48.14843 42.848,-56.68034 50.4206,-67.75788 50.4765,-73.82422 0.098,-10.6479 -8.3703,-18.73931 -18.4101,-18.69532 z m -457.07814,62.26954 c 40.26655,0.10478 80.59379,7.27127 119.01172,21.35351 41.87353,15.34894 81.52828,37.15287 121.5,66.8086 16.27487,12.07464 46,36.75783 46,38.19726 0,0.36404 -4.1625,4.24409 -9.25,8.62305 -85.66058,73.73068 -170.00877,111.79575 -260.00586,117.33593 -16.61205,1.02252 -17.20549,1.0219 -36.24414,-0.0586 -34.63847,-1.96584 -66.96322,-8.75166 -102,-21.41406 -49.68416,-17.95597 -98.73628,-47.52181 -141.5,-85.28711 -6.875,-6.07143 -14.28033,-12.88794 -16.45704,-15.14844 l -3.95703,-4.11133 4.95703,-5.05859 c 2.72671,-2.78306 10.58204,-9.95833 17.45704,-15.94336 44.55526,-38.78774 94.21436,-67.88656 147,-86.13867 8.98741,-3.10765 33.08658,-9.89538 41.5,-11.68945 23.68974,-5.05158 47.82835,-7.53163 71.98828,-7.46875 z"
         style="fill:#1e3a8a;stroke:#1e3a8a;stroke-width:24.56692944;stroke-miterlimit:4;stroke-dasharray:none;stroke-opacity:1;fill-opacity:1" />
      <ellipse
         style="stroke:#1e3a8a;stroke-width:6.5;stroke-miterlimit:4;stroke-dasharray:none;stroke-opacity:1;fill:#1e3a8a;fill-opacity:1"
         ry="6.8035712"
         rx="6.4255953"
         cy="121.80814"
         cx="138.88843"
         id="path816" />
    </g>
  </g>
</svg>
